<svg id="visual" viewBox="0 0 900 200" width="900" height="200" xmlns="http://www.w3.org/2000/svg" xmlns:xlink="http://www.w3.org/1999/xlink" version="1.1"><path d="M0 84L25 90C50 96 100 108 150 104.8C200 101.7 250 83.3 300 81.5C350 79.7 400 94.3 450 104.7C500 115 550 121 600 123.5C650 126 700 125 750 114.7C800 104.3 850 84.7 875 74.8L900 65L900 0L875 0C850 0 800 0 750 0C700 0 650 0 600 0C550 0 500 0 450 0C400 0 350 0 300 0C250 0 200 0 150 0C100 0 50 0 25 0L0 0Z" fill="#0284c7" stroke-linecap="round" stroke-linejoin="miter"></path></svg>